<svg height="512" viewBox="0 0 64 64" width="512" xmlns="http://www.w3.org/2000/svg"><path d="M59 27.299l-1.321-.48.596-1.273-3.82-3.82-1.273.595L52.701 21h-5.402l-.479 1.321-1.273-.595-3.82 3.82.596 1.273-1.323.48V32.7l1.321.48-.596 1.272 3.82 3.821 1.273-.596.481 1.323h5.402l.479-1.321 1.273.596 3.82-3.821-.596-1.272L59 32.701zM50 34a4 4 0 110-8 4 4 0 010 8zm-11-7H29v-8h10zm0 12H29v-9h10z" fill="#f0bc5e"/><path d="M60 7H42.92c-.488-3.387-3.401-6-6.92-6H8C4.141 1 1 4.14 1 8v1h2.177c-.057.163-.107.33-.136.506a2.982 2.982 0 00.519 2.238c.064.089.142.164.214.245a2.98 2.98 0 00-.732 1.517 2.982 2.982 0 00.519 2.238c.064.089.142.164.214.245a2.98 2.98 0 00-.732 1.518 2.982 2.982 0 00.519 2.238c.064.089.142.164.214.245a2.98 2.98 0 00-.732 1.518 2.982 2.982 0 00.519 2.238c.064.089.142.164.214.245a2.977 2.977 0 00-.732 1.517 2.982 2.982 0 00.519 2.238c.064.089.142.164.214.245a2.98 2.98 0 00-.732 1.518 2.982 2.982 0 00.519 2.238c.064.089.142.164.214.245a2.98 2.98 0 00-.732 1.518 2.98 2.98 0 00.519 2.237c.064.089.141.163.213.244a3 3 0 00-.732 1.519 2.98 2.98 0 00.519 2.237 2.984 2.984 0 001.948 1.215l.24.038H1v1c0 3.859 3.141 7 7 7h2v3.756l-6.093-1.827-.354.177C3.448 51.157 1 52.412 1 55s2.448 3.843 2.553 3.895l.354.177L10 57.244V63h8v-5.756l6.093 1.827.354-.177C24.552 58.843 27 57.588 27 55s-2.448-3.843-2.553-3.895l-.354-.177L18 52.756V49h18c3.519 0 6.432-2.614 6.92-6H60c1.654 0 3-1.346 3-3V10c0-1.654-1.346-3-3-3zm1 3v5H27v-5c0-.551.448-1 1-1h32c.552 0 1 .449 1 1zM8 3h28a5.008 5.008 0 014.899 4H3.101A5.008 5.008 0 018 3zM6.165 9.014l11.999 2a.977.977 0 01.649.405.996.996 0 01.173.747.975.975 0 01-.875.812L6.492 11.041a3.093 3.093 0 00-.523-.032l-.133-.022a.977.977 0 01-.649-.405.997.997 0 01-.173-.748.993.993 0 011.151-.82zm.327 26.027a3.071 3.071 0 00-.538-.035l-.118-.02a1 1 0 01-.822-1.153.982.982 0 01.866-.812l11.626 1.938c.166.027.331.041.495.041.018 0 .035-.004.053-.005l.11.018a.985.985 0 01.649.405.984.984 0 01.173.747.976.976 0 01-.868.813zm-.612-22.02l11.626 1.938c.166.028.331.041.495.041.018 0 .035-.004.053-.005l.11.018a.977.977 0 01.649.405.996.996 0 01.173.747.977.977 0 01-.872.812L6.492 15.041a3.136 3.136 0 00-.527-.033l-.13-.022a.977.977 0 01-.649-.405.997.997 0 01-.173-.748.984.984 0 01.867-.812zm0 4l11.626 1.938c.166.028.331.041.495.041.018 0 .035-.004.053-.005l.11.018a.977.977 0 01.649.405.996.996 0 01.173.747.976.976 0 01-.878.811L6.492 19.041a3.063 3.063 0 00-.529-.033l-.128-.021a.977.977 0 01-.649-.405.997.997 0 01-.173-.748.984.984 0 01.867-.813zm0 4l11.626 1.938c.166.028.331.041.495.041.018 0 .035-.004.053-.005l.11.018a.977.977 0 01.649.405.996.996 0 01.173.747.975.975 0 01-.875.812L6.492 23.041a3.176 3.176 0 00-.521-.032l-.135-.023a.977.977 0 01-.649-.405.997.997 0 01-.173-.748.982.982 0 01.866-.812zm0 4l11.626 1.938c.166.028.331.041.495.041.018 0 .035-.004.053-.005l.11.018a.977.977 0 01.649.405.996.996 0 01.173.747.977.977 0 01-.872.812L6.492 27.041a3.01 3.01 0 00-.524-.032l-.132-.022a.977.977 0 01-.649-.405.997.997 0 01-.173-.748.982.982 0 01.866-.813zm0 4l11.626 1.938c.166.028.331.041.495.041.018 0 .035-.004.053-.005l.11.018a.977.977 0 01.649.405.996.996 0 01.173.747.976.976 0 01-.878.811L6.492 31.041a3.136 3.136 0 00-.527-.033l-.13-.022a.977.977 0 01-.649-.405.997.997 0 01-.173-.748.984.984 0 01.867-.812zm-.693 9.561a1 1 0 01-.173-.749.982.982 0 01.866-.812l11.626 1.938c.166.027.331.041.495.041.018 0 .035-.004.053-.005l.11.018a.985.985 0 01.649.405.984.984 0 01.173.747.984.984 0 01-1.15.82l-12-2a.974.974 0 01-.649-.403zm15.253-.325c-.065-.091-.144-.167-.217-.249a2.98 2.98 0 00.736-1.515 2.976 2.976 0 00-.519-2.236c-.065-.091-.144-.167-.217-.249a2.982 2.982 0 00.217-3.752c-.065-.091-.144-.166-.217-.248a2.98 2.98 0 00.735-1.514 2.982 2.982 0 00-.519-2.238c-.065-.091-.144-.166-.217-.248a2.98 2.98 0 00.735-1.514 2.982 2.982 0 00-.519-2.238c-.065-.091-.144-.166-.217-.248a2.98 2.98 0 00.735-1.514 2.982 2.982 0 00-.519-2.238c-.065-.091-.144-.166-.217-.248a2.98 2.98 0 00.735-1.514 2.982 2.982 0 00-.519-2.238c-.065-.091-.144-.166-.217-.248a2.98 2.98 0 00.735-1.514 2.982 2.982 0 00-.519-2.238 2.98 2.98 0 00-1.948-1.215L18.246 9h6.938A2.966 2.966 0 0025 10v30c0 .352.072.686.184 1h-4.356a2.976 2.976 0 00-.388-2.743zM4.146 56.912C3.719 56.606 3 55.949 3 55c0-.95.721-1.607 1.145-1.912L10 54.844v.313zm19.708-3.824C24.281 53.394 25 54.051 25 55c0 .95-.721 1.607-1.145 1.912L18 55.156v-.313zM16 61h-4V49h4zm20-14H8a5.008 5.008 0 01-4.899-4h37.798A5.008 5.008 0 0136 47zm24-6H28a1 1 0 01-1-1V17h34v23a1 1 0 01-1 1z"/><path d="M50 25c-2.757 0-5 2.243-5 5s2.243 5 5 5 5-2.243 5-5-2.243-5-5-5zm0 8c-1.654 0-3-1.346-3-3s1.346-3 3-3 3 1.346 3 3-1.346 3-3 3zM33 11h2v2h-2zm-4 0h2v2h-2zm8 0h2v2h-2zm-8 18h10v2H29zm0 4h10v2H29zm0 4h2v2h-2zm4 0h6v2h-6z"/></svg>