<svg xmlns="http://www.w3.org/2000/svg" viewBox="0 0 512 512"><path d="M496 432.004H272c-8.832 0-16-7.136-16-16v-320c0-8.832 7.168-16 16-16h224c8.832 0 16 7.168 16 16v320c0 8.864-7.168 16-16 16z" fill="#eceff1"/><path d="M432 176.004H272c-8.832 0-16-7.136-16-16s7.168-16 16-16h160c8.832 0 16 7.168 16 16s-7.168 16-16 16zm0 64H272c-8.832 0-16-7.136-16-16s7.168-16 16-16h160c8.832 0 16 7.168 16 16s-7.168 16-16 16zm0 64H272c-8.832 0-16-7.136-16-16s7.168-16 16-16h160c8.832 0 16 7.168 16 16s-7.168 16-16 16zm0 64H272c-8.832 0-16-7.136-16-16s7.168-16 16-16h160c8.832 0 16 7.168 16 16s-7.168 16-16 16z" fill="#1976d2"/><path d="M282.208 19.716c-3.648-3.072-8.544-4.352-13.152-3.424l-256 48C5.504 65.7 0 72.324 0 80.004v352c0 7.68 5.472 14.304 13.056 15.712l256 48a15.3 15.3 0 002.944.288c3.712 0 7.328-1.28 10.208-3.68a15.958 15.958 0 005.792-12.32v-448c0-4.768-2.112-9.248-5.792-12.288z" fill="#1565c0"/><path d="M207.904 337.796c-.832 7.328-6.592 13.184-13.92 14.08a13.77 13.77 0 01-1.984.128 16.044 16.044 0 01-14.976-10.368L144 253.572l-33.024 88.064c-2.56 6.848-9.28 11.04-16.704 10.272-7.264-.768-13.088-6.4-14.112-13.664l-16-112c-1.248-8.704 4.832-16.832 13.568-18.08 8.768-1.28 16.864 4.832 18.112 13.568l7.136 50.048 26.016-69.408c4.672-12.48 25.28-12.48 29.984 0l24.512 65.344 8.608-77.504c.992-8.768 9.12-15.072 17.664-14.144 8.8 1.024 15.104 8.928 14.144 17.696l-16 144.032z" fill="#fafafa"/></svg>