<svg height="512" viewBox="0 0 64 64" width="512" xmlns="http://www.w3.org/2000/svg"><g data-name="Document-files"><path d="M61 33v22a4 4 0 11-8 0V33a4 4 0 108 0z" fill="#2488ff"/><path d="M57 59H13v-4h31a5 5 0 005-5V15l-6-6h10v46a3.995 3.995 0 004 4z" fill="#78b9eb"/><path d="M56.17 57.83A4.078 4.078 0 0058 58.87a3.657 3.657 0 01-1 .13 3.995 3.995 0 01-4-4V33a3.98 3.98 0 002 3.46V55a4.025 4.025 0 001.17 2.83z" fill="#092240"/><path d="M50 16v35a5 5 0 01-5 5H13v-1h30a5 5 0 005-5V15l-6-6h1z" fill="#3c5d76"/><path d="M49 15h-8a2.006 2.006 0 01-2-2V5l4 4z" fill="#ff9811"/><path d="M41 15a2.006 2.006 0 01-2-2V5H9v50h35a5 5 0 005-5V15z" fill="#ffeb99"/><path d="M24 15h10v2H24zm-10 6h30v2H14zm0 6h30v2H14zm18 6h12v2H32z" fill="#1a6fb0"/><path d="M39 50a4.985 4.985 0 015-5h-1a5 5 0 000 10h1a5 5 0 01-5-5z" fill="#806749"/><path d="M43 55H9a5 5 0 010-10h34a5 5 0 000 10z" fill="#ff9811"/><rect fill="#ffad41" height="3" rx="1.5" width="14" x="7" y="46"/></g></svg>