<svg height="512" width="512" xmlns="http://www.w3.org/2000/svg"><path d="M471.366 443.233V156.599c0-18.299-14.834-33.133-33.133-33.133H73.766c-18.299 0-33.132 14.834-33.132 33.133v286.634z" fill="#5b7fa0"/><path d="M438.234 123.466h-23c18.299 0 33.133 14.834 33.133 33.133v286.634h23V156.599c-.001-18.299-14.835-33.133-33.133-33.133z" fill="#4a6f99"/><path d="M73.765 438.232V164.884a8.283 8.283 0 018.283-8.283h347.903a8.283 8.283 0 018.283 8.283v273.347H73.765z" fill="#77dfff"/><path d="M173.167 256H156.6c-9.15 0-16.567-7.417-16.567-16.567V24.067c0-9.149 7.417-16.567 16.567-16.567h165.667c9.15 0 16.567 7.417 16.567 16.567v16.825z" fill="#bec8f7"/><path d="M286.582 372.856l-24.493 29.392c-3.169 3.803-9.01 3.803-12.179 0l-24.493-29.392c-4.302-5.163-.631-13.001 6.089-13.001a7.926 7.926 0 007.926-7.927v-17.28a7.926 7.926 0 017.927-7.926h17.28a7.927 7.927 0 017.927 7.926v17.28a7.927 7.927 0 007.926 7.927c6.722 0 10.393 7.838 6.09 13.001z" fill="#ff6c6c"/><path d="M322.267 7.5h-23c9.15 0 16.567 7.417 16.567 16.567v46.689l23-29.864V24.067c-.001-9.15-7.418-16.567-16.567-16.567z" fill="#a2b6f4"/><path d="M355.967 289.133h-166.8c-8.837 0-16-7.163-16-16v-216.5c0-8.837 7.163-16 16-16h166.8c8.837 0 16 7.163 16 16v216.5c0 8.837-7.164 16-16 16z" fill="#e9efff"/><path d="M297.7 106.9h-50.267a8 8 0 01-8-8V81.767a8 8 0 018-8H297.7a8 8 0 018 8V98.9a8 8 0 01-8 8z" fill="#77dfff"/><path d="M355.967 40.633h-23c8.836 0 16 7.164 16 16v216.5c0 8.837-7.164 16-16 16h23c8.836 0 16-7.163 16-16v-216.5c0-8.836-7.164-16-16-16z" fill="#d3dcfb"/><path d="M297.7 73.767h-23a8 8 0 018 8V98.9a8 8 0 01-8 8h23a8 8 0 008-8V81.767a8 8 0 00-8-8zm132.252 82.834H406.95a8.283 8.283 0 018.283 8.283v273.347h23.002V164.884a8.282 8.282 0 00-8.283-8.283z" fill="#69cdff"/><path d="M472.5 504.5h-433c-17.673 0-32-14.327-32-32v-26.267a8 8 0 018-8h481a8 8 0 018 8V472.5c0 17.673-14.327 32-32 32z" fill="#e9efff"/><path d="M496.5 438.233h-23a8 8 0 018 8V472.5c0 17.673-14.327 32-32 32h23c17.673 0 32-14.327 32-32v-26.267a8 8 0 00-8-8z" fill="#d3dcfb"/><path d="M286.582 372.856l-24.493 29.392c-3.169 3.803-9.01 3.803-12.179 0l-5.411-6.493 19.082-22.899c4.302-5.163.631-13.001-6.089-13.001a7.926 7.926 0 01-7.926-7.927v-17.28c0-3.368-2.104-6.238-5.067-7.386a7.895 7.895 0 012.86-.54h17.28a7.927 7.927 0 017.927 7.926v17.28a7.927 7.927 0 007.926 7.927c6.722 0 10.393 7.838 6.09 13.001z" fill="#f74242"/><path d="M496.5 430.733h-17.634V156.599c0-22.405-18.228-40.633-40.633-40.633h-58.767V56.633c0-12.958-10.542-23.5-23.5-23.5h-9.634v-9.066C346.333 10.796 335.537 0 322.267 0H156.6c-13.27 0-24.066 10.796-24.066 24.067v91.899H73.767c-22.405 0-40.633 18.228-40.633 40.633v274.134H15.5c-8.547 0-15.5 6.953-15.5 15.5V472.5C0 494.28 17.72 512 39.5 512h383.735a7.5 7.5 0 000-15H130.967v-9.067c0-4.142-3.357-7.5-7.5-7.5s-7.5 3.358-7.5 7.5V497H97.833v-9.067c0-4.142-3.357-7.5-7.5-7.5s-7.5 3.358-7.5 7.5V497H64.7v-9.067c0-4.142-3.357-7.5-7.5-7.5s-7.5 3.358-7.5 7.5V497H39.5C25.99 497 15 486.009 15 472.5v-26.267a.5.5 0 01.5-.5h183.3v17.35c0 8.703 7.08 15.784 15.783 15.784h82.834c8.703 0 15.783-7.081 15.783-15.784v-17.35h183.3a.5.5 0 01.5.5V472.5c0 13.509-10.99 24.5-24.5 24.5h-19.266c-4.143 0-7.5 3.358-7.5 7.5s3.357 7.5 7.5 7.5H472.5c21.78 0 39.5-17.72 39.5-39.5v-26.267c0-8.547-6.953-15.5-15.5-15.5zm-58.267-299.767c14.134 0 25.633 11.499 25.633 25.633v274.134h-18.131V164.884c0-8.703-7.08-15.783-15.783-15.783h-50.485v-18.135zm-73.766-74.333v216.5c0 4.687-3.814 8.5-8.5 8.5h-166.8c-4.687 0-8.5-3.813-8.5-8.5v-216.5c0-4.687 3.813-8.5 8.5-8.5h147.741c.615.163 1.259.259 1.925.259s1.31-.096 1.925-.259h15.208c4.687 0 8.501 3.813 8.501 8.5zM147.533 24.067c0-5 4.067-9.067 9.066-9.067h165.667c4.999 0 9.066 4.067 9.066 9.067v9.066H189.167c-12.958 0-23.5 10.542-23.5 23.5V248.5H156.6c-4.999 0-9.066-4.067-9.066-9.067V24.067zM48.134 156.599c0-14.134 11.499-25.633 25.633-25.633h58.767v18.135H82.049c-8.703 0-15.783 7.08-15.783 15.783v51.265c0 4.142 3.357 7.5 7.5 7.5s7.5-3.358 7.5-7.5v-51.265c0-.432.352-.783.783-.783h50.484v75.332c0 13.27 10.796 24.067 24.066 24.067h9.067v9.633c0 12.958 10.542 23.5 23.5 23.5h166.8c12.958 0 23.5-10.542 23.5-23.5V164.101h50.485c.432 0 .783.352.783.783v265.849H81.266V246.149c0-4.142-3.357-7.5-7.5-7.5s-7.5 3.358-7.5 7.5v184.585H48.134zM298.2 463.083a.785.785 0 01-.783.784h-82.834a.784.784 0 01-.783-.784v-17.35h84.4z"/><path d="M247.434 114.4H297.7c8.547 0 15.5-6.953 15.5-15.5V81.767c0-8.547-6.953-15.5-15.5-15.5h-50.267c-8.547 0-15.5 6.953-15.5 15.5V98.9c.001 8.547 6.954 15.5 15.501 15.5zm-.5-32.633a.5.5 0 01.5-.5H297.7a.5.5 0 01.5.5V98.9a.5.5 0 01-.5.5h-50.267a.5.5 0 01-.5-.5V81.767zm91.899 50.766H206.3c-4.143 0-7.5 3.358-7.5 7.5s3.357 7.5 7.5 7.5h132.533c4.143 0 7.5-3.358 7.5-7.5s-3.357-7.5-7.5-7.5zm0 33.134H206.3c-4.143 0-7.5 3.358-7.5 7.5s3.357 7.5 7.5 7.5h132.533a7.5 7.5 0 007.5-7.5c0-4.143-3.357-7.5-7.5-7.5zM322.267 198.8h-99.399c-4.143 0-7.5 3.358-7.5 7.5s3.357 7.5 7.5 7.5h99.399a7.5 7.5 0 000-15zm-78.118 208.249c2.939 3.528 7.259 5.551 11.851 5.551s8.911-2.023 11.851-5.551l24.493-29.392c3.874-4.648 4.685-10.939 2.12-16.419-2.566-5.48-7.92-8.884-13.971-8.884a.427.427 0 01-.427-.426v-17.28c0-8.506-6.92-15.427-15.427-15.427H247.36c-8.507 0-15.427 6.92-15.427 15.427v17.28a.427.427 0 01-.427.426c-6.051 0-11.404 3.404-13.971 8.884-2.565 5.479-1.754 11.771 2.12 16.418zm-13.028-39.448c.114-.246.24-.246.386-.246 8.506 0 15.427-6.92 15.427-15.426v-17.28c0-.235.191-.427.427-.427h17.279c.235 0 .427.191.427.427v17.28c0 8.506 6.921 15.426 15.427 15.426.146 0 .271 0 .386.246.115.245.035.342-.059.454l-24.493 29.392c-.041.05-.128.153-.327.153s-.286-.103-.327-.153l-24.493-29.392c-.095-.113-.175-.209-.06-.454z"/></svg>