<svg xmlns="http://www.w3.org/2000/svg" viewBox="0 0 503.689 503.689"><path d="M16.502 135.838L396.564 34.225c11.815-3.151 24.418 3.938 27.569 15.754l75.225 279.237c3.151 11.815-3.938 24.025-16.148 27.175L103.149 458.004c-11.815 3.151-24.418-3.938-27.569-15.754L.749 163.013c-3.151-11.815 3.938-24.024 15.753-27.175z" fill="#e4e7e7"/><path d="M48.404 158.287L380.81 69.672c9.058-2.363 18.511 3.151 21.268 12.209l62.228 231.188c2.363 9.058-3.151 18.511-12.209 20.874L119.69 422.558c-9.058 2.363-18.511-3.151-21.268-12.209L36.195 179.161c-2.757-9.059 2.757-18.511 12.209-20.874z" fill="#208db2"/><path d="M85.425 131.899H481.24c12.603 0 22.449 10.24 22.449 22.449v293.415c0 12.603-10.24 22.449-22.449 22.449H85.425c-12.603 0-22.449-10.24-22.449-22.449V154.349c0-12.21 10.24-22.45 22.449-22.45z" fill="#f3f3f3"/><path d="M111.813 163.407h343.828c9.452 0 17.329 7.877 17.329 17.329V421.77c0 9.452-7.877 17.329-17.329 17.329H111.813c-9.452 0-17.329-7.877-17.329-17.329V180.736c0-9.452 7.483-17.329 17.329-17.329z" fill="#a3e0f5"/><path d="M94.484 180.736v84.283c3.938.394 7.877.788 11.815.788 50.018 0 90.585-40.566 90.585-90.585 0-3.938-.394-7.877-.788-11.815h-84.283c-9.846 0-17.329 7.877-17.329 17.329z" fill="#efc75e"/><path d="M123.235 356.392c-9.846 0-19.692.788-28.751 1.969v63.409c0 9.452 7.877 17.329 17.329 17.329h131.151c.788-3.545 1.182-6.695 1.182-10.24-.001-40.172-53.957-72.467-120.911-72.467z" fill="#3db39e"/><path d="M397.745 320.945c-107.914 0-195.742 52.775-196.923 118.154h254.425c9.452 0 17.329-7.877 17.329-17.329v-91.766c-23.237-5.514-48.443-9.059-74.831-9.059z" fill="#4bc2ad"/></svg>