<svg height="512pt" viewBox="0 -4 512 511" width="512pt" xmlns="http://www.w3.org/2000/svg"><path d="M312.867 426.238a17.058 17.058 0 00-14.199-7.605h-25.602v-59.735h-34.132v59.735h-25.602a17.058 17.058 0 00-14.2 7.605L165 477.438c-5.23 7.84-3.113 18.44 4.738 23.66a16.891 16.891 0 009.446 2.867c5.511 0 10.93-2.66 14.214-7.602l29.067-43.597h16.469v34.132c0 9.422 7.644 17.067 17.066 17.067s17.066-7.645 17.066-17.067v-34.132h16.47l29.066 43.597c3.285 4.942 8.695 7.602 14.214 7.602 3.25 0 6.547-.918 9.446-2.867 7.843-5.23 9.96-15.82 4.738-23.66zm0 0" fill="#556080"/><path d="M25.602 26.102v324.265h460.796V26.102zm0 0" fill="#e7eced"/><path d="M68.266 333.3h375.468v34.134H68.266zM503.465 34.633H8.535C3.825 34.633 0 30.809 0 26.102c0-4.711 3.824-8.536 8.535-8.536h494.93c4.71 0 8.535 3.825 8.535 8.536 0 4.707-3.824 8.53-8.535 8.53zm0 0" fill="#7383bf"/><path d="M256 51.7c-4.71 0-8.535-3.821-8.535-8.532V9.035c0-4.71 3.824-8.535 8.535-8.535s8.535 3.824 8.535 8.535v34.133c0 4.71-3.824 8.531-8.535 8.531zm0 0" fill="#556080"/><path d="M404.746 282.102h35.309a3.68 3.68 0 003.68-3.68V157.777a3.678 3.678 0 00-3.68-3.675h-35.309a3.678 3.678 0 00-3.68 3.675v120.645a3.68 3.68 0 003.68 3.68zm0 0" fill="#c5411e"/><path d="M327.945 282.102h35.309a3.68 3.68 0 003.68-3.68v-52.379a3.678 3.678 0 00-3.68-3.676h-35.309a3.678 3.678 0 00-3.68 3.676v52.379a3.68 3.68 0 003.68 3.68zm0 0" fill="#dc691d"/><path d="M174.344 282.102h35.312a3.678 3.678 0 003.676-3.68v-26.777a3.678 3.678 0 00-3.676-3.68h-35.312a3.678 3.678 0 00-3.676 3.68v26.777a3.678 3.678 0 003.676 3.68zm0 0" fill="#ebba16"/><path d="M251.145 282.102h35.312a3.678 3.678 0 003.676-3.68V191.91a3.674 3.674 0 00-3.676-3.676h-35.312a3.678 3.678 0 00-3.68 3.676v86.512a3.68 3.68 0 003.68 3.68zm0 0" fill="#ed8a19"/><g fill="#dd352e"><path d="M170.668 213.832a8.51 8.51 0 01-6.035-2.5 8.525 8.525 0 010-12.066l93.867-93.868a8.546 8.546 0 0110.77-1.066l70.367 46.91 71.898-87.879c2.988-3.652 8.363-4.18 12.008-1.203a8.54 8.54 0 011.203 12.008l-76.8 93.867c-2.774 3.406-7.68 4.137-11.34 1.7l-70.981-47.32-88.918 88.917a8.538 8.538 0 01-6.039 2.5zm0 0"/><path d="M418.133 77.3h-42.668c-4.707 0-8.531-3.823-8.531-8.534s3.824-8.532 8.53-8.532h42.669c4.71 0 8.535 3.82 8.535 8.532s-3.824 8.535-8.535 8.535zm0 0"/><path d="M418.133 119.965a8.532 8.532 0 01-8.531-8.531V68.766a8.532 8.532 0 018.53-8.532c4.712 0 8.536 3.82 8.536 8.532v42.668c0 4.71-3.824 8.53-8.535 8.53zm0 0"/></g><path d="M128 256.5H59.734c-4.71 0-8.535-3.824-8.535-8.535 0-4.707 3.824-8.531 8.535-8.531H128c4.71 0 8.535 3.824 8.535 8.53 0 4.712-3.824 8.536-8.535 8.536zm0 0" fill="#25ae88"/><path d="M93.867 290.633H59.734c-4.71 0-8.535-3.824-8.535-8.531 0-4.711 3.824-8.536 8.535-8.536h34.133c4.711 0 8.531 3.825 8.531 8.536 0 4.707-3.82 8.53-8.53 8.53zm0 0" fill="#366db6"/><path d="M128 171.168H59.734c-4.71 0-8.535-3.824-8.535-8.535s3.824-8.531 8.535-8.531H128c4.71 0 8.535 3.82 8.535 8.53 0 4.712-3.824 8.536-8.535 8.536zm0 0" fill="#bf4d90"/><path d="M93.867 205.3H59.734c-4.71 0-8.535-3.823-8.535-8.534s3.824-8.532 8.535-8.532h34.133c4.711 0 8.531 3.82 8.531 8.532s-3.82 8.535-8.53 8.535zm0 0" fill="#75348b"/><path d="M128 85.832H59.734c-4.71 0-8.535-3.82-8.535-8.531s3.824-8.535 8.535-8.535H128c4.71 0 8.535 3.824 8.535 8.535 0 4.71-3.824 8.531-8.535 8.531zm0 0" fill="#61b872"/><path d="M93.867 119.965H59.734c-4.71 0-8.535-3.82-8.535-8.531s3.824-8.536 8.535-8.536h34.133c4.711 0 8.531 3.825 8.531 8.536 0 4.71-3.82 8.53-8.53 8.53zm0 0" fill="#ed8a19"/></svg>