<svg id="Layer_5" enable-background="new 0 0 64 64" height="512" viewBox="0 0 64 64" width="512" xmlns="http://www.w3.org/2000/svg"><g><g><path d="m59 27.299-1.321-.48.596-1.273-3.82-3.82-1.273.595-.481-1.321h-5.402l-.479 1.321-1.273-.595-3.82 3.82.596 1.273-1.323.48v5.401l1.321.48-.596 1.272 3.82 3.821 1.273-.596.481 1.323h5.402l.479-1.321 1.273.596 3.82-3.821-.596-1.272 1.323-.481zm-9 6.701c-2.209 0-4-1.791-4-4s1.791-4 4-4 4 1.791 4 4-1.791 4-4 4z" fill="#f0bc5e"/></g><g><g><path d="m39 27h-10v-8h10z" fill="#f0bc5e"/></g></g><g><g><path d="m39 39h-10v-9h10z" fill="#f0bc5e"/></g></g><g><path d="m60 7h-17.08c-.488-3.387-3.401-6-6.92-6h-28c-3.859 0-7 3.14-7 7v1h2.177c-.057.163-.107.33-.136.506-.132.791.053 1.585.519 2.238.064.089.142.164.214.245-.373.414-.636.932-.732 1.517-.132.791.053 1.585.519 2.238.064.089.142.164.214.245-.373.414-.636.932-.732 1.518-.132.791.053 1.585.519 2.238.064.089.142.164.214.245-.373.414-.636.932-.732 1.518-.132.791.053 1.585.519 2.238.064.089.142.164.214.245-.373.413-.636.932-.732 1.517-.132.791.053 1.585.519 2.238.064.089.142.164.214.245-.373.414-.636.932-.732 1.518-.132.791.053 1.585.519 2.238.064.089.142.164.214.245-.373.414-.636.932-.732 1.518-.132.79.053 1.585.519 2.237.064.089.141.163.213.244-.372.414-.635.933-.732 1.519-.132.79.053 1.585.519 2.237.466.651 1.157 1.083 1.948 1.215l.24.038h-4.754v1c0 3.859 3.141 7 7 7h2v3.756l-6.093-1.827-.354.177c-.105.051-2.553 1.306-2.553 3.894s2.448 3.843 2.553 3.895l.354.177 6.093-1.828v5.756h8v-5.756l6.093 1.827.354-.177c.105-.051 2.553-1.306 2.553-3.894s-2.448-3.843-2.553-3.895l-.354-.177-6.093 1.828v-3.756h18c3.519 0 6.432-2.614 6.92-6h17.08c1.654 0 3-1.346 3-3v-30c0-1.654-1.346-3-3-3zm1 3v5h-34v-5c0-.551.448-1 1-1h15 17c.552 0 1 .449 1 1zm-53-7h28c2.415 0 4.435 1.721 4.899 4h-12.899-24.899c.464-2.279 2.484-4 4.899-4zm-1.835 6.014 11.999 2c.268.044.492.185.649.405.155.217.217.482.173.747-.074.447-.432.765-.875.812l-11.619-1.937c-.177-.029-.351-.033-.523-.032l-.133-.022c-.268-.044-.492-.185-.649-.405-.155-.217-.217-.482-.173-.748.08-.483.493-.834.983-.834.056 0 .112.004.168.014zm.327 26.027c-.182-.03-.361-.037-.538-.035l-.118-.02c-.268-.045-.492-.185-.649-.404-.155-.218-.217-.483-.173-.749.073-.442.43-.76.866-.812l11.626 1.938c.166.027.331.041.495.041.018 0 .035-.004.053-.005l.11.018c.267.045.491.185.649.405.157.221.218.479.173.747-.073.444-.429.764-.868.813zm-.612-22.02 11.626 1.938c.166.028.331.041.495.041.018 0 .035-.004.053-.005l.11.018c.268.044.492.185.649.405.155.217.217.482.173.747-.074.445-.431.764-.872.812l-11.622-1.936c-.178-.029-.353-.034-.527-.033l-.13-.022c-.268-.044-.492-.185-.649-.405-.155-.217-.217-.482-.173-.748.074-.442.431-.76.867-.812zm0 4 11.626 1.938c.166.028.331.041.495.041.018 0 .035-.004.053-.005l.11.018c.268.044.492.185.649.405.155.217.217.482.173.747-.074.447-.434.764-.878.811l-11.616-1.935c-.179-.029-.355-.035-.529-.033l-.128-.021c-.268-.044-.492-.185-.649-.405-.155-.217-.217-.482-.173-.748.074-.443.431-.761.867-.813zm0 4 11.626 1.938c.166.028.331.041.495.041.018 0 .035-.004.053-.005l.11.018c.268.044.492.185.649.405.155.217.217.482.173.747-.074.447-.432.765-.875.812l-11.619-1.936c-.177-.028-.349-.033-.521-.032l-.135-.023c-.268-.044-.492-.185-.649-.405-.155-.217-.217-.482-.173-.748.073-.442.43-.76.866-.812zm0 4 11.626 1.938c.166.028.331.041.495.041.018 0 .035-.004.053-.005l.11.018c.268.044.492.185.649.405.155.217.217.482.173.747-.074.445-.431.764-.872.812l-11.622-1.936c-.178-.029-.352-.034-.524-.032l-.132-.022c-.268-.044-.492-.185-.649-.405-.155-.217-.217-.482-.173-.748.073-.443.43-.761.866-.813zm0 4 11.626 1.938c.166.028.331.041.495.041.018 0 .035-.004.053-.005l.11.018c.268.044.492.185.649.405.155.217.217.482.173.747-.074.447-.434.764-.878.811l-11.616-1.935c-.178-.029-.353-.034-.527-.033l-.13-.022c-.268-.044-.492-.185-.649-.405-.155-.217-.217-.482-.173-.748.074-.442.431-.76.867-.812zm-.693 9.561c-.155-.218-.217-.483-.173-.749.073-.442.43-.76.866-.812l11.626 1.938c.166.027.331.041.495.041.018 0 .035-.004.053-.005l.11.018c.267.045.491.185.649.405.157.221.218.479.173.747-.089.537-.583.921-1.15.82l-12-2c-.268-.044-.492-.183-.649-.403zm15.253-.325c-.065-.091-.144-.167-.217-.249.373-.413.639-.929.736-1.515.132-.79-.053-1.585-.519-2.236-.065-.091-.144-.167-.217-.249.373-.413.639-.929.736-1.514.132-.791-.053-1.585-.519-2.238-.065-.091-.144-.166-.217-.248.373-.413.638-.929.735-1.514.132-.791-.053-1.585-.519-2.238-.065-.091-.144-.166-.217-.248.373-.413.638-.929.735-1.514.132-.791-.053-1.585-.519-2.238-.065-.091-.144-.166-.217-.248.373-.413.638-.929.735-1.514.132-.791-.053-1.585-.519-2.238-.065-.091-.144-.166-.217-.248.373-.413.638-.929.735-1.514.132-.791-.053-1.585-.519-2.238-.065-.091-.144-.166-.217-.248.373-.413.638-.929.735-1.514.132-.791-.053-1.585-.519-2.238-.466-.652-1.157-1.083-1.948-1.215l-.241-.041h6.938c-.112.314-.184.648-.184 1v30c0 .352.072.686.184 1h-4.356c.057-.163.102-.331.131-.507.132-.79-.053-1.585-.519-2.236zm-16.294 18.655c-.427-.306-1.146-.963-1.146-1.912 0-.95.721-1.607 1.145-1.912l5.855 1.756v.313zm19.708-3.824c.427.306 1.146.963 1.146 1.912 0 .95-.721 1.607-1.145 1.912l-5.855-1.756v-.313zm-7.854 7.912h-4v-12h4zm20-14h-28c-2.415 0-4.435-1.721-4.899-4h24.899 12.899c-.464 2.279-2.484 4-4.899 4zm24-6h-17-15c-.552 0-1-.448-1-1v-23h34v23c0 .552-.448 1-1 1z"/><path d="m50 25c-2.757 0-5 2.243-5 5s2.243 5 5 5 5-2.243 5-5-2.243-5-5-5zm0 8c-1.654 0-3-1.346-3-3s1.346-3 3-3 3 1.346 3 3-1.346 3-3 3z"/><path d="m33 11h2v2h-2z"/><path d="m29 11h2v2h-2z"/><path d="m37 11h2v2h-2z"/><path d="m29 29h10v2h-10z"/><path d="m29 33h10v2h-10z"/><path d="m29 37h2v2h-2z"/><path d="m33 37h6v2h-6z"/></g></g></svg>