<svg id="Layer_1" enable-background="new 0 0 512 512" height="512" viewBox="0 0 512 512" width="512" xmlns="http://www.w3.org/2000/svg"><g><g><path d="m471.366 443.233v-286.634c0-18.299-14.834-33.133-33.133-33.133h-364.467c-18.299 0-33.132 14.834-33.132 33.133v286.634z" fill="#5b7fa0"/><path d="m438.234 123.466h-23c18.299 0 33.133 14.834 33.133 33.133v286.634h23v-286.634c-.001-18.299-14.835-33.133-33.133-33.133z" fill="#4a6f99"/><path d="m73.765 438.232v-273.348c0-4.575 3.709-8.283 8.283-8.283h347.903c4.575 0 8.283 3.709 8.283 8.283v273.347h-364.469z" fill="#77dfff"/><path d="m173.167 256h-16.567c-9.15 0-16.567-7.417-16.567-16.567v-215.366c0-9.149 7.417-16.567 16.567-16.567h165.667c9.15 0 16.567 7.417 16.567 16.567v16.825z" fill="#bec8f7"/><path d="m286.582 372.856-24.493 29.392c-3.169 3.803-9.01 3.803-12.179 0l-24.493-29.392c-4.302-5.163-.631-13.001 6.089-13.001 4.378 0 7.926-3.549 7.926-7.927v-17.28c0-4.378 3.549-7.926 7.927-7.926h17.28c4.378 0 7.927 3.549 7.927 7.926v17.28c0 4.378 3.549 7.927 7.926 7.927 6.722 0 10.393 7.838 6.09 13.001z" fill="#ff6c6c"/><path d="m322.267 7.5h-23c9.15 0 16.567 7.417 16.567 16.567v46.689l23-29.864v-16.825c-.001-9.15-7.418-16.567-16.567-16.567z" fill="#a2b6f4"/><path d="m355.967 289.133h-166.8c-8.837 0-16-7.163-16-16v-216.5c0-8.837 7.163-16 16-16h166.8c8.837 0 16 7.163 16 16v216.5c0 8.837-7.164 16-16 16z" fill="#e9efff"/><path d="m297.7 106.9h-50.267c-4.418 0-8-3.582-8-8v-17.133c0-4.418 3.582-8 8-8h50.267c4.418 0 8 3.582 8 8v17.133c0 4.418-3.582 8-8 8z" fill="#77dfff"/><path d="m355.967 40.633h-23c8.836 0 16 7.164 16 16v216.5c0 8.837-7.164 16-16 16h23c8.836 0 16-7.163 16-16v-216.5c0-8.836-7.164-16-16-16z" fill="#d3dcfb"/><path d="m297.7 73.767h-23c4.418 0 8 3.582 8 8v17.133c0 4.418-3.582 8-8 8h23c4.418 0 8-3.582 8-8v-17.133c0-4.419-3.582-8-8-8z" fill="#69cdff"/><path d="m429.952 156.601h-23.002c4.575 0 8.283 3.709 8.283 8.283v273.347h23.002v-273.347c0-4.575-3.708-8.283-8.283-8.283z" fill="#69cdff"/><path d="m472.5 504.5h-433c-17.673 0-32-14.327-32-32v-26.267c0-4.418 3.582-8 8-8h481c4.418 0 8 3.582 8 8v26.267c0 17.673-14.327 32-32 32z" fill="#e9efff"/><path d="m496.5 438.233h-23c4.418 0 8 3.582 8 8v26.267c0 17.673-14.327 32-32 32h23c17.673 0 32-14.327 32-32v-26.267c0-4.418-3.582-8-8-8z" fill="#d3dcfb"/><path d="m286.582 372.856-24.493 29.392c-3.169 3.803-9.01 3.803-12.179 0l-5.411-6.493 19.082-22.899c4.302-5.163.631-13.001-6.089-13.001-4.378 0-7.926-3.549-7.926-7.927v-17.28c0-3.368-2.104-6.238-5.067-7.386.888-.344 1.85-.54 2.86-.54h17.28c4.378 0 7.927 3.549 7.927 7.926v17.28c0 4.378 3.549 7.927 7.926 7.927 6.722 0 10.393 7.838 6.09 13.001z" fill="#f74242"/></g><g><path d="m496.5 430.733h-17.634v-274.134c0-22.405-18.228-40.633-40.633-40.633h-58.767v-59.333c0-12.958-10.542-23.5-23.5-23.5h-9.634v-9.066c.001-13.271-10.795-24.067-24.065-24.067h-165.667c-13.27 0-24.066 10.796-24.066 24.067v91.899h-58.767c-22.405 0-40.633 18.228-40.633 40.633v274.134h-17.634c-8.547 0-15.5 6.953-15.5 15.5v26.267c0 21.78 17.72 39.5 39.5 39.5h383.735c4.142 0 7.5-3.358 7.5-7.5s-3.358-7.5-7.5-7.5h-292.268v-9.067c0-4.142-3.357-7.5-7.5-7.5s-7.5 3.358-7.5 7.5v9.067h-18.134v-9.067c0-4.142-3.357-7.5-7.5-7.5s-7.5 3.358-7.5 7.5v9.067h-18.133v-9.067c0-4.142-3.357-7.5-7.5-7.5s-7.5 3.358-7.5 7.5v9.067h-10.2c-13.51 0-24.5-10.991-24.5-24.5v-26.267c0-.276.225-.5.5-.5h183.3v17.35c0 8.703 7.08 15.784 15.783 15.784h82.834c8.703 0 15.783-7.081 15.783-15.784v-17.35h183.3c.275 0 .5.224.5.5v26.267c0 13.509-10.99 24.5-24.5 24.5h-19.266c-4.143 0-7.5 3.358-7.5 7.5s3.357 7.5 7.5 7.5h19.266c21.78 0 39.5-17.72 39.5-39.5v-26.267c0-8.547-6.953-15.5-15.5-15.5zm-58.267-299.767c14.134 0 25.633 11.499 25.633 25.633v274.134h-18.131v-265.849c0-8.703-7.08-15.783-15.783-15.783h-50.485v-18.135zm-73.766-74.333v216.5c0 4.687-3.814 8.5-8.5 8.5h-166.8c-4.687 0-8.5-3.813-8.5-8.5v-216.5c0-4.687 3.813-8.5 8.5-8.5h147.741c.615.163 1.259.259 1.925.259s1.31-.096 1.925-.259h15.208c4.687 0 8.501 3.813 8.501 8.5zm-216.934-32.566c0-5 4.067-9.067 9.066-9.067h165.667c4.999 0 9.066 4.067 9.066 9.067v9.066h-142.165c-12.958 0-23.5 10.542-23.5 23.5v191.867h-9.067c-4.999 0-9.066-4.067-9.066-9.067v-215.366zm-99.399 132.532c0-14.134 11.499-25.633 25.633-25.633h58.767v18.135h-50.485c-8.703 0-15.783 7.08-15.783 15.783v51.265c0 4.142 3.357 7.5 7.5 7.5s7.5-3.358 7.5-7.5v-51.265c0-.432.352-.783.783-.783h50.484v75.332c0 13.27 10.796 24.067 24.066 24.067h9.067v9.633c0 12.958 10.542 23.5 23.5 23.5h166.8c12.958 0 23.5-10.542 23.5-23.5v-109.032h50.485c.432 0 .783.352.783.783v265.849h-349.468v-184.584c0-4.142-3.357-7.5-7.5-7.5s-7.5 3.358-7.5 7.5v184.585h-18.132zm250.066 306.484c0 .432-.352.784-.783.784h-82.834c-.432 0-.783-.352-.783-.784v-17.35h84.4z"/><path d="m247.434 114.4h50.266c8.547 0 15.5-6.953 15.5-15.5v-17.133c0-8.547-6.953-15.5-15.5-15.5h-50.267c-8.547 0-15.5 6.953-15.5 15.5v17.133c.001 8.547 6.954 15.5 15.501 15.5zm-.5-32.633c0-.276.225-.5.5-.5h50.266c.275 0 .5.224.5.5v17.133c0 .276-.225.5-.5.5h-50.267c-.275 0-.5-.224-.5-.5v-17.133z"/><path d="m338.833 132.533h-132.533c-4.143 0-7.5 3.358-7.5 7.5s3.357 7.5 7.5 7.5h132.533c4.143 0 7.5-3.358 7.5-7.5s-3.357-7.5-7.5-7.5z"/><path d="m338.833 165.667h-132.533c-4.143 0-7.5 3.358-7.5 7.5s3.357 7.5 7.5 7.5h132.533c4.143 0 7.5-3.358 7.5-7.5 0-4.143-3.357-7.5-7.5-7.5z"/><path d="m322.267 198.8h-99.399c-4.143 0-7.5 3.358-7.5 7.5s3.357 7.5 7.5 7.5h99.399c4.143 0 7.5-3.358 7.5-7.5s-3.358-7.5-7.5-7.5z"/><path d="m244.149 407.049c2.939 3.528 7.259 5.551 11.851 5.551s8.911-2.023 11.851-5.551l24.493-29.392c3.874-4.648 4.685-10.939 2.12-16.419-2.566-5.48-7.92-8.884-13.971-8.884-.235 0-.427-.191-.427-.426v-17.28c0-8.506-6.92-15.427-15.427-15.427h-17.279c-8.507 0-15.427 6.92-15.427 15.427v17.28c0 .235-.191.426-.427.426-6.051 0-11.404 3.404-13.971 8.884-2.565 5.479-1.754 11.771 2.12 16.418zm-13.028-39.448c.114-.246.24-.246.386-.246 8.506 0 15.427-6.92 15.427-15.426v-17.28c0-.235.191-.427.427-.427h17.279c.235 0 .427.191.427.427v17.28c0 8.506 6.921 15.426 15.427 15.426.146 0 .271 0 .386.246.115.245.035.342-.059.454l-24.493 29.392c-.041.05-.128.153-.327.153s-.286-.103-.327-.153l-24.493-29.392c-.095-.113-.175-.209-.06-.454z"/></g></g></svg>